<svg width="32" height="32" viewBox="0 0 32 32" fill="none" xmlns="http://www.w3.org/2000/svg">
<path d="M25.57 32H6.42997C2.89148 32 0 29.1049 0 25.57V6.42997C0 2.89148 2.89148 0 6.42997 0H25.57C29.1049 0 32 2.89148 32 6.42997V25.57C32 29.1049 29.1049 32 25.57 32Z" fill="#5A66F9"/>
<path d="M19.766 10.5498C19.543 10.6265 19.6271 10.8897 19.861 10.8861L21.071 10.8605L18.6511 17.349L16.3664 13.1488C15.6207 11.778 14.2755 10.9226 12.7584 10.813H12.0822H12.0785C10.291 10.9482 8.79592 12.0778 8.18545 13.7629L4.45687 24.0019C4.43128 24.0714 4.48246 24.1445 4.55557 24.1445H10.1375C10.1813 24.1445 10.2216 24.1152 10.2362 24.075L12.5793 17.6268L14.853 21.8086C15.7048 23.3768 17.3424 24.2761 19.119 24.1481C20.8992 24.0238 22.3943 22.9089 23.023 21.2347L26.9088 10.813L27.9287 7.96902C27.9579 7.88494 27.8775 7.80452 27.7934 7.83376L19.766 10.5498Z" fill="white"/>
<path opacity="0.3" d="M8.18125 13.7593L4.45632 24.0019C4.43073 24.0714 4.48191 24.1445 4.55502 24.1445H10.1369C10.1808 24.1445 10.221 24.1152 10.2356 24.075L12.5788 17.6268L14.8525 21.8086C15.5982 23.1794 16.9398 24.0385 18.4568 24.1481H19.1221L12.078 10.813C10.2868 10.9446 8.79537 12.0741 8.18125 13.7593Z" fill="#5A66F9"/>
<path d="M9.94338 17.0786L7.35165 24.0058C7.32606 24.0752 7.37724 24.1483 7.45034 24.1483H10.1408C10.1846 24.1483 10.2248 24.1191 10.2395 24.0789L12.5826 17.6306L12.1111 16.8959C11.6249 16.1319 10.2797 16.2379 9.94338 17.0786Z" fill="white"/>
<path opacity="0.3" d="M21.293 17.912L23.8774 11.1494C23.9322 11.0105 23.8262 10.8606 23.68 10.8606H21.07L18.6501 17.3637L19.1216 18.0984C19.6115 18.8588 20.9567 18.7528 21.293 17.912Z" fill="#5A66F9"/>
</svg>
